General

Format                           : MPEG-4
Format profile                   : Base Media
Codec ID                         : isom
File size                        : 50.8 MiB
Duration                         : 3mn 29s
Overall bit rate                 : 2 031 Kbps
Encoded date                     : UTC 2012-01-27 23:19:29
Tagged date                      : UTC 2012-01-27 23:19:29

Video
ID                               : 1
Format                           : AVC
Format/Info                      : Advanced Video Codec
Format profile                   : High@L3.0
Format settings, CABAC           : Yes
Format settings, ReFrames        : 2 frames
Codec ID                         : avc1
Codec ID/Info                    : Advanced Video Coding
Duration                         : 3mn 29s
Bit rate mode                    : Variable
Bit rate                         : 1 974 Kbps
Nominal bit rate                 : 2 103 Kbps
Maximum bit rate                 : 6 797 Kbps
Width                            : 720 pixels
Height                           : 480 pixels
Display aspect ratio             : 16:9
Original display aspect ratio    : 16:9
Frame rate mode                  : Constant
Frame rate                       : 23.976 fps
Standard                         : NTSC
Color space                      : YUV
Chroma subsampling               : 4:2:0
Bit depth                        : 8 bits
Scan type                        : Progressive
Bits/(Pixel*Frame)               : 0.238
Stream size                      : 49.3 MiB (97%)

Audio
ID                               : 2
Format                           : AAC
Format/Info                      : Advanced Audio Codec
Format profile                   : LC
Codec ID                         : 40
Duration                         : 3mn 29s
Bit rate mode                    : Variable
Bit rate                         : 50.3 Kbps
Maximum bit rate                 : 69.1 Kbps
Channel(s)                       : 2 channels
Channel positions                : Front: L R
Sampling rate                    : 44.1 KHz
Compression mode                 : Lossy
Stream size                      : 1.26 MiB (2%)


